<svg viewBox="0 0 400 300" xmlns="http://www.w3.org/2000/svg">
  <defs>
    <linearGradient id="greenGrad" x1="0%" y1="0%" x2="0%" y2="100%">
      <stop offset="0%" style="stop-color:#c8e6a0;stop-opacity:1" />
      <stop offset="100%" style="stop-color:#a8d870;stop-opacity:1" />
    </linearGradient>
    <linearGradient id="brownGrad" x1="0%" y1="0%" x2="0%" y2="100%">
      <stop offset="0%" style="stop-color:#8b6b47;stop-opacity:1" />
      <stop offset="100%" style="stop-color:#6b4423;stop-opacity:1" />
    </linearGradient>
  </defs>
  <!-- Green top (foliage) -->
  <path d="M 50 80 Q 80 60 120 70 Q 160 75 200 70 Q 250 60 280 80 Q 310 95 320 130 Q 330 160 300 180 L 280 220 Q 250 240 200 245 Q 150 240 120 220 L 100 180 Q 70 160 60 130 Q 50 100 50 80" fill="url(#greenGrad)" stroke="#9ab050" stroke-width="2"/>
  <!-- Brown bottom (soil/trunk) -->
  <path d="M 50 130 L 60 130 L 80 180 L 100 180 L 120 220 Q 150 240 200 245 Q 250 240 280 220 L 300 180 L 320 130 Q 310 160 280 200 L 200 260 Q 150 260 80 200 L 50 130" fill="url(#brownGrad)" stroke="#5a3a1a" stroke-width="1"/>
  <!-- Shadow details -->
  <ellipse cx="100" cy="150" rx="15" ry="20" fill="#704020" opacity="0.6"/>
  <ellipse cx="200" cy="160" rx="18" ry="22" fill="#704020" opacity="0.5"/>
  <ellipse cx="300" cy="155" rx="14" ry="18" fill="#704020" opacity="0.6"/>
</svg>
